 <svg width="227" height="227" viewBox="0 0 227 227" fill="none" xmlns="http://www.w3.org/2000/svg">
<circle cx="113.5" cy="113.5" r="80" stroke="#808080" stroke-dasharray="2 2"/>
<circle cx="113.5" cy="113.5" r="109" stroke="#808080"/>
<path d="M147.616 98.541C146.504 95.9648 144.899 93.6302 142.893 91.668C140.885 89.6999 138.518 88.1359 135.92 87.061C133.227 85.942 130.337 85.3693 127.42 85.376C123.328 85.376 119.335 86.4966 115.866 88.6133C115.036 89.1196 114.247 89.6758 113.5 90.2817C112.753 89.6758 111.964 89.1196 111.134 88.6133C107.665 86.4966 103.672 85.376 99.5796 85.376C96.6328 85.376 93.7773 85.9404 91.0796 87.061C88.4731 88.1401 86.124 89.6924 84.1069 91.668C82.0981 93.628 80.4934 95.9631 79.3838 98.541C78.23 101.222 77.6406 104.069 77.6406 107C77.6406 109.764 78.2051 112.644 79.3257 115.574C80.2637 118.023 81.6084 120.563 83.3267 123.128C86.0493 127.187 89.793 131.42 94.4414 135.712C102.145 142.826 109.773 147.74 110.097 147.939L112.064 149.201C112.936 149.757 114.056 149.757 114.928 149.201L116.895 147.939C117.219 147.731 124.839 142.826 132.55 135.712C137.199 131.42 140.942 127.187 143.665 123.128C145.383 120.563 146.736 118.023 147.666 115.574C148.787 112.644 149.351 109.764 149.351 107C149.359 104.069 148.77 101.222 147.616 98.541V98.541Z" fill="#F94D16"/>
</svg>