<svg width="19" height="19" viewBox="0 0 19 19" fill="none" xmlns="http://www.w3.org/2000/svg">
<path d="M17.126 5.26212C16.8773 4.68625 16.5187 4.16441 16.0702 3.72579C15.6214 3.28587 15.0923 2.93628 14.5116 2.69601C13.9095 2.44588 13.2636 2.31785 12.6116 2.31935C11.6969 2.31935 10.8044 2.56984 10.0288 3.04298C9.84326 3.15617 9.66699 3.28048 9.5 3.41593C9.33301 3.28048 9.15674 3.15617 8.97119 3.04298C8.19561 2.56984 7.30313 2.31935 6.38838 2.31935C5.72969 2.31935 5.09141 2.44552 4.48838 2.69601C3.90576 2.93722 3.38066 3.28419 2.92979 3.72579C2.48076 4.16391 2.12206 4.68588 1.87402 5.26212C1.61611 5.86144 1.48438 6.49786 1.48438 7.15284C1.48438 7.77072 1.61055 8.41456 1.86104 9.06954C2.0707 9.61691 2.37129 10.1847 2.75537 10.758C3.36397 11.6653 4.20078 12.6116 5.23984 13.5709C6.96172 15.161 8.6669 16.2595 8.73926 16.304L9.179 16.586C9.37383 16.7104 9.62432 16.7104 9.81914 16.586L10.2589 16.304C10.3313 16.2576 12.0346 15.161 13.7583 13.5709C14.7974 12.6116 15.6342 11.6653 16.2428 10.758C16.6269 10.1847 16.9293 9.61691 17.1371 9.06954C17.3876 8.41456 17.5138 7.77072 17.5138 7.15284C17.5156 6.49786 17.3839 5.86144 17.126 5.26212V5.26212Z" fill="#808080"/>
</svg>
