<svg width="232" height="81" viewBox="0 0 232 81" fill="none" xmlns="http://www.w3.org/2000/svg">
<rect x="0.622432" y="2.03595" width="24.7093" height="73.7426" rx="12.3547" transform="matrix(0.881242 0.472665 -0.466287 0.884633 36.8073 -0.059322)" fill="black" stroke="#F94D16" stroke-width="3"/>
<rect x="0.622432" y="2.03595" width="24.7093" height="73.7426" rx="12.3547" transform="matrix(0.881242 0.472665 -0.466287 0.884633 77.0267 -0.0519978)" fill="black" stroke="#F94D16" stroke-width="3"/>
<rect x="2.02129" y="0.617952" width="24.7093" height="44.9058" rx="12.3547" transform="matrix(0.881242 -0.472665 0.466287 0.884633 185.195 39.6475)" fill="black" stroke="#F94D16" stroke-width="3"/>
<rect x="93.6582" y="74.7161" width="24.8978" height="73.222" rx="12.4489" transform="rotate(-90 93.6582 74.7161)" fill="black" stroke="#F94D16" stroke-width="3"/>
<path d="M166.88 18.2089C166.88 23.8753 162.33 28.4464 156.745 28.4464C151.159 28.4464 146.609 23.8753 146.609 18.2089C146.609 12.5426 151.159 7.97144 156.745 7.97144C162.33 7.97144 166.88 12.5426 166.88 18.2089Z" fill="black" stroke="#F94D16" stroke-width="3"/>
</svg>
