<svg width="43" height="43" viewBox="0 0 43 43" fill="none" xmlns="http://www.w3.org/2000/svg">
<path d="M21.4999 3.58331C11.6045 3.58331 3.58325 11.6046 3.58325 21.5C3.58325 31.3954 11.6045 39.4166 21.4999 39.4166C31.3953 39.4166 39.4166 31.3954 39.4166 21.5C39.4166 11.6046 31.3953 3.58331 21.4999 3.58331Z" stroke="#F8F8F8" stroke-width="1.5" stroke-linecap="round" stroke-linejoin="round"/>
<path d="M7.6521 32.8699C7.6521 32.8699 11.6457 27.7708 21.4999 27.7708C31.3541 27.7708 35.3495 32.8699 35.3495 32.8699M21.4999 21.5C22.9254 21.5 24.2926 20.9337 25.3006 19.9257C26.3086 18.9177 26.8749 17.5505 26.8749 16.125C26.8749 14.6995 26.3086 13.3323 25.3006 12.3243C24.2926 11.3163 22.9254 10.75 21.4999 10.75C20.0744 10.75 18.7072 11.3163 17.6992 12.3243C16.6912 13.3323 16.1249 14.6995 16.1249 16.125C16.1249 17.5505 16.6912 18.9177 17.6992 19.9257C18.7072 20.9337 20.0744 21.5 21.4999 21.5V21.5Z" stroke="#F8F8F8" stroke-width="1.5" stroke-linecap="round" stroke-linejoin="round"/>
</svg>
